<svg width="708" height="298" viewBox="0 0 708 298" fill="none" xmlns="http://www.w3.org/2000/svg">
<path d="M584.713 0L76.0068 37.7041V63.4387L151.415 56.8554L41.8935 259.74L19.1513 264.527L0 297.444L195.702 255.55L185.528 231.013L74.2113 256.747L182.536 55.6585L584.713 25.1361V0Z" fill="white"/>
<path d="M414.746 93.9612L336.345 256.149L360.284 268.118C389.609 204.081 410.556 172.96 480.578 132.862L469.806 160.392L494.343 169.369L514.691 114.309L496.139 95.7566C475.072 101.981 434.296 133.86 416.541 149.021L435.094 106.529L414.746 93.9612Z" fill="white"/>
<path d="M683.462 111.915L670.894 87.9763L548.206 98.1505L536.835 107.726C528.855 131.665 513.614 186.725 516.487 215.452C507.869 221.198 489.356 229.816 481.177 233.407L494.343 255.55L523.07 239.391C550.6 293.853 608.653 262.732 705.606 204.68L691.243 181.937C685.733 185.243 679.468 189.194 672.698 193.463C627.988 221.659 561.248 263.748 544.615 225.626C591.189 194.478 646.763 149.895 683.462 111.915ZM636.781 117.9L542.82 199.293C544.256 171.045 554.59 138.049 559.577 125.082L636.781 117.9Z" fill="white"/>
<path d="M184.324 232.808C180.142 184.331 223.656 69.4343 313.004 102.939C332.156 110.12 357.89 137.052 329.754 196.301L383.026 160.991L362.079 203.483C340.941 218.279 324.622 230.787 311.223 241.056C271.511 271.491 257.454 282.264 219.642 274.702C207.672 272.308 189.106 262.972 184.324 232.808ZM227.422 163.983C194.865 217.607 213.856 240.588 227.422 245.376C248.369 252.769 275.3 245.376 299.239 204.68C323.142 164.045 314.201 137.243 303.429 128.074C291.459 117.888 259.979 110.359 227.422 163.983Z" fill="white"/>
</svg>
